<svg width="364" height="84" viewBox="0 0 364 84" fill="none" xmlns="http://www.w3.org/2000/svg">
<rect x="0.5" y="15.5" width="53" height="53" rx="26.5" stroke="#9DA3C8"/>
<path fill-rule="evenodd" clip-rule="evenodd" d="M27 66C40.2548 66 51 55.2548 51 42C51 28.7452 40.2548 18 27 18C13.7452 18 3 28.7452 3 42C3 55.2548 13.7452 66 27 66ZM14.15 50.5666C15.5833 51.9666 17.3111 52.6666 19.3333 52.6666H35.3333C37 52.6666 38.4167 52.0833 39.5833 50.9166C40.75 49.7499 41.3333 48.3333 41.3333 46.6666C41.3333 45.1333 40.8278 43.7944 39.8167 42.6499C38.8056 41.5055 37.5333 40.8444 36 40.6666C36 38.0666 35.0944 35.861 33.2833 34.0499C31.4722 32.2388 29.2667 31.3333 26.6667 31.3333C24.5556 31.3333 22.6667 31.9666 21 33.2333C19.3333 34.4999 18.2222 36.1555 17.6667 38.1999C15.9778 38.5777 14.6111 39.4444 13.5667 40.7999C12.5222 42.1555 12 43.6999 12 45.4333C12 47.4555 12.7167 49.1666 14.15 50.5666Z" fill="#9DA3C8"/>
<path d="M95.712 64.576C92.8107 64.576 90.2507 64 88.032 62.848C85.8133 61.696 84.0853 60.0747 82.848 57.984C81.6533 55.8507 81.056 53.4187 81.056 50.688V32.448C81.056 29.7173 81.6533 27.328 82.848 25.28C84.0853 23.1893 85.8133 21.568 88.032 20.416C90.2507 19.264 92.8107 18.688 95.712 18.688C98.5707 18.688 101.109 19.264 103.328 20.416C105.547 21.5253 107.253 23.104 108.448 25.152C109.685 27.2 110.304 29.568 110.304 32.256V32.32C110.304 32.5333 110.24 32.704 110.112 32.832C109.984 32.96 109.835 33.024 109.664 33.024L107.552 33.152C107.125 33.152 106.912 32.9387 106.912 32.512V32.32C106.912 29.12 105.888 26.56 103.84 24.64C101.792 22.6773 99.0827 21.696 95.712 21.696C92.2987 21.696 89.568 22.6773 87.52 24.64C85.472 26.56 84.448 29.12 84.448 32.32V50.88C84.448 54.08 85.472 56.6613 87.52 58.624C89.6107 60.5867 92.3413 61.568 95.712 61.568C99.0827 61.568 101.792 60.5867 103.84 58.624C105.888 56.6613 106.912 54.08 106.912 50.88V50.752C106.912 50.368 107.125 50.176 107.552 50.176L109.664 50.304C110.091 50.304 110.304 50.496 110.304 50.88C110.304 53.568 109.685 55.9573 108.448 58.048C107.253 60.096 105.547 61.696 103.328 62.848C101.109 64 98.5707 64.576 95.712 64.576ZM122.043 64C121.616 64 121.403 63.7867 121.403 63.36V19.84C121.403 19.4133 121.616 19.2 122.043 19.2H124.155C124.582 19.2 124.795 19.4133 124.795 19.84V60.736C124.795 60.9067 124.88 60.992 125.051 60.992H148.027C148.454 60.992 148.667 61.2053 148.667 61.632V63.36C148.667 63.7867 148.454 64 148.027 64H122.043ZM158.356 64C157.929 64 157.716 63.7867 157.716 63.36V19.84C157.716 19.4133 157.929 19.2 158.356 19.2H160.468C160.894 19.2 161.108 19.4133 161.108 19.84V63.36C161.108 63.7867 160.894 64 160.468 64H158.356ZM203.336 19.648C203.549 19.3493 203.805 19.2 204.104 19.2H206.28C206.706 19.2 206.92 19.4133 206.92 19.84V63.36C206.92 63.7867 206.706 64 206.28 64H204.168C203.741 64 203.528 63.7867 203.528 63.36V25.792C203.528 25.664 203.485 25.6 203.4 25.6C203.314 25.5573 203.25 25.6 203.208 25.728L191.944 43.136C191.73 43.4347 191.474 43.584 191.176 43.584H190.088C189.789 43.584 189.533 43.4347 189.32 43.136L177.928 25.792C177.885 25.664 177.821 25.6213 177.736 25.664C177.65 25.7067 177.608 25.792 177.608 25.92V63.36C177.608 63.7867 177.394 64 176.968 64H174.856C174.429 64 174.216 63.7867 174.216 63.36V19.84C174.216 19.4133 174.429 19.2 174.856 19.2H177.095C177.394 19.2 177.65 19.3493 177.864 19.648L190.408 38.848C190.45 38.8907 190.514 38.912 190.6 38.912C190.685 38.912 190.749 38.8907 190.792 38.848L203.336 19.648ZM246.14 64C245.756 64 245.5 63.8293 245.372 63.488L242.62 54.976C242.577 54.848 242.492 54.784 242.364 54.784H222.396C222.268 54.784 222.183 54.848 222.14 54.976L219.452 63.488C219.324 63.8293 219.068 64 218.684 64H216.444C215.975 64 215.804 63.7653 215.932 63.296L230.14 19.712C230.268 19.3707 230.524 19.2 230.908 19.2H233.788C234.172 19.2 234.428 19.3707 234.556 19.712L248.828 63.296L248.892 63.552C248.892 63.8507 248.7 64 248.316 64H246.14ZM223.164 51.648C223.121 51.7333 223.121 51.8187 223.164 51.904C223.249 51.9467 223.335 51.968 223.42 51.968H241.34C241.425 51.968 241.489 51.9467 241.532 51.904C241.617 51.8187 241.639 51.7333 241.596 51.648L232.572 23.808C232.529 23.7227 232.465 23.68 232.38 23.68C232.295 23.68 232.231 23.7227 232.188 23.808L223.164 51.648Z" fill="white"/>
<path d="M274.61 19.2C275.037 19.2 275.25 19.4133 275.25 19.84V21.568C275.25 21.9947 275.037 22.208 274.61 22.208H266.098C265.927 22.208 265.842 22.2933 265.842 22.464V63.36C265.842 63.7867 265.629 64 265.202 64H263.09C262.663 64 262.45 63.7867 262.45 63.36V22.464C262.45 22.2933 262.365 22.208 262.194 22.208H254.194C253.767 22.208 253.554 21.9947 253.554 21.568V19.84C253.554 19.4133 253.767 19.2 254.194 19.2H274.61ZM302.075 21.568C302.075 21.9947 301.861 22.208 301.435 22.208H286.267C286.096 22.208 286.01 22.2933 286.01 22.464V39.808C286.01 39.9787 286.096 40.064 286.267 40.064H295.995C296.421 40.064 296.635 40.2773 296.635 40.704V42.432C296.635 42.8587 296.421 43.072 295.995 43.072H286.267C286.096 43.072 286.01 43.1573 286.01 43.328V60.736C286.01 60.9067 286.096 60.992 286.267 60.992H301.435C301.861 60.992 302.075 61.2053 302.075 61.632V63.36C302.075 63.7867 301.861 64 301.435 64H283.259C282.832 64 282.619 63.7867 282.619 63.36V19.84C282.619 19.4133 282.832 19.2 283.259 19.2H301.435C301.861 19.2 302.075 19.4133 302.075 19.84V21.568ZM319.147 64.512C316.032 64.512 313.515 63.552 311.595 61.632C309.718 59.6693 308.779 57.0667 308.779 53.824V29.248C308.779 26.048 309.718 23.488 311.595 21.568C313.515 19.648 316.032 18.688 319.147 18.688C322.304 18.688 324.822 19.648 326.699 21.568C328.619 23.488 329.579 26.048 329.579 29.248V30.464C329.579 30.6773 329.515 30.848 329.387 30.976C329.259 31.104 329.11 31.168 328.939 31.168L326.827 31.296C326.4 31.296 326.187 31.0827 326.187 30.656V29.056C326.187 26.8373 325.547 25.0667 324.267 23.744C322.987 22.3787 321.28 21.696 319.147 21.696C317.056 21.696 315.371 22.3787 314.091 23.744C312.811 25.0667 312.171 26.8373 312.171 29.056V54.08C312.171 56.2987 312.811 58.0907 314.091 59.456C315.371 60.8213 317.056 61.504 319.147 61.504C321.238 61.504 322.923 60.8213 324.203 59.456C325.526 58.0907 326.187 56.2987 326.187 54.08V52.608C326.187 52.1813 326.4 51.968 326.827 51.968L328.939 52.096C329.366 52.096 329.579 52.3093 329.579 52.736V53.824C329.579 57.0667 328.619 59.6693 326.699 61.632C324.822 63.552 322.304 64.512 319.147 64.512ZM354.757 19.84C354.757 19.4133 354.97 19.2 355.397 19.2H357.509C357.936 19.2 358.149 19.4133 358.149 19.84V63.36C358.149 63.7867 357.936 64 357.509 64H355.397C354.97 64 354.757 63.7867 354.757 63.36V43.328C354.757 43.1573 354.672 43.072 354.501 43.072H341.829C341.658 43.072 341.573 43.1573 341.573 43.328V63.36C341.573 63.7867 341.36 64 340.933 64H338.821C338.394 64 338.181 63.7867 338.181 63.36V19.84C338.181 19.4133 338.394 19.2 338.821 19.2H340.933C341.36 19.2 341.573 19.4133 341.573 19.84V39.808C341.573 39.9787 341.658 40.064 341.829 40.064H354.501C354.672 40.064 354.757 39.9787 354.757 39.808V19.84Z" fill="#9DA3C8"/>
</svg>
