<svg width="42" height="42" viewBox="0 0 42 42" fill="none" xmlns="http://www.w3.org/2000/svg">
<rect x="0.5" y="0.5" width="41" height="41" rx="20.5" stroke="#3F6EB5"/>
<path fill-rule="evenodd" clip-rule="evenodd" d="M21 39C30.9411 39 39 30.9411 39 21C39 11.0589 30.9411 3 21 3C11.0589 3 3 11.0589 3 21C3 30.9411 11.0589 39 21 39ZM11.3625 27.425C12.4375 28.475 13.7333 29 15.25 29H27.25C28.5 29 29.5625 28.5625 30.4375 27.6875C31.3125 26.8125 31.75 25.75 31.75 24.5C31.75 23.35 31.3708 22.3459 30.6125 21.4875C29.8542 20.6292 28.9 20.1334 27.75 20C27.75 18.05 27.0708 16.3959 25.7125 15.0375C24.3542 13.6792 22.7 13 20.75 13C19.1667 13 17.75 13.475 16.5 14.425C15.25 15.375 14.4167 16.6167 14 18.15C12.7333 18.4334 11.7083 19.0834 10.925 20.1C10.1417 21.1167 9.75 22.275 9.75 23.575C9.75 25.0917 10.2875 26.375 11.3625 27.425Z" fill="#3F6EB5"/>
</svg>
