<svg width="273" height="58" viewBox="0 0 273 58" fill="none" xmlns="http://www.w3.org/2000/svg">
<rect x="0.5" y="8.5" width="41" height="41" rx="20.5" stroke="#3F6EB5"/>
<path fill-rule="evenodd" clip-rule="evenodd" d="M21 47C30.9411 47 39 38.9411 39 29C39 19.0589 30.9411 11 21 11C11.0589 11 3 19.0589 3 29C3 38.9411 11.0589 47 21 47ZM11.3625 35.425C12.4375 36.475 13.7333 37 15.25 37H27.25C28.5 37 29.5625 36.5625 30.4375 35.6875C31.3125 34.8125 31.75 33.75 31.75 32.5C31.75 31.35 31.3708 30.3459 30.6125 29.4875C29.8542 28.6292 28.9 28.1334 27.75 28C27.75 26.05 27.0708 24.3959 25.7125 23.0375C24.3542 21.6792 22.7 21 20.75 21C19.1667 21 17.75 21.475 16.5 22.425C15.25 23.375 14.4167 24.6167 14 26.15C12.7333 26.4334 11.7083 27.0834 10.925 28.1C10.1417 29.1167 9.75 30.275 9.75 31.575C9.75 33.0917 10.2875 34.375 11.3625 35.425Z" fill="#3F6EB5"/>
<path d="M71.784 48.432C69.608 48.432 67.688 48 66.024 47.136C64.36 46.272 63.064 45.056 62.136 43.488C61.24 41.888 60.792 40.064 60.792 38.016V24.336C60.792 22.288 61.24 20.496 62.136 18.96C63.064 17.392 64.36 16.176 66.024 15.312C67.688 14.448 69.608 14.016 71.784 14.016C73.928 14.016 75.832 14.448 77.496 15.312C79.16 16.144 80.44 17.328 81.336 18.864C82.264 20.4 82.728 22.176 82.728 24.192V24.24C82.728 24.4 82.68 24.528 82.584 24.624C82.488 24.72 82.376 24.768 82.248 24.768L80.664 24.864C80.344 24.864 80.184 24.704 80.184 24.384V24.24C80.184 21.84 79.416 19.92 77.88 18.48C76.344 17.008 74.312 16.272 71.784 16.272C69.224 16.272 67.176 17.008 65.64 18.48C64.104 19.92 63.336 21.84 63.336 24.24V38.16C63.336 40.56 64.104 42.496 65.64 43.968C67.208 45.44 69.256 46.176 71.784 46.176C74.312 46.176 76.344 45.44 77.88 43.968C79.416 42.496 80.184 40.56 80.184 38.16V38.064C80.184 37.776 80.344 37.632 80.664 37.632L82.248 37.728C82.568 37.728 82.728 37.872 82.728 38.16C82.728 40.176 82.264 41.968 81.336 43.536C80.44 45.072 79.16 46.272 77.496 47.136C75.832 48 73.928 48.432 71.784 48.432ZM91.5323 48C91.2123 48 91.0523 47.84 91.0523 47.52V14.88C91.0523 14.56 91.2123 14.4 91.5323 14.4H93.1163C93.4363 14.4 93.5963 14.56 93.5963 14.88V45.552C93.5963 45.68 93.6603 45.744 93.7883 45.744H111.02C111.34 45.744 111.5 45.904 111.5 46.224V47.52C111.5 47.84 111.34 48 111.02 48H91.5323ZM118.767 48C118.447 48 118.287 47.84 118.287 47.52V14.88C118.287 14.56 118.447 14.4 118.767 14.4H120.351C120.671 14.4 120.831 14.56 120.831 14.88V47.52C120.831 47.84 120.671 48 120.351 48H118.767ZM152.502 14.736C152.662 14.512 152.854 14.4 153.078 14.4H154.71C155.03 14.4 155.19 14.56 155.19 14.88V47.52C155.19 47.84 155.03 48 154.71 48H153.126C152.806 48 152.646 47.84 152.646 47.52V19.344C152.646 19.248 152.614 19.2 152.55 19.2C152.486 19.168 152.438 19.2 152.406 19.296L143.958 32.352C143.798 32.576 143.606 32.688 143.382 32.688H142.566C142.342 32.688 142.15 32.576 141.99 32.352L133.446 19.344C133.414 19.248 133.366 19.216 133.302 19.248C133.238 19.28 133.206 19.344 133.206 19.44V47.52C133.206 47.84 133.046 48 132.726 48H131.142C130.822 48 130.662 47.84 130.662 47.52V14.88C130.662 14.56 130.822 14.4 131.142 14.4H132.822C133.046 14.4 133.238 14.512 133.398 14.736L142.806 29.136C142.838 29.168 142.886 29.184 142.95 29.184C143.014 29.184 143.062 29.168 143.094 29.136L152.502 14.736ZM184.605 48C184.317 48 184.125 47.872 184.029 47.616L181.965 41.232C181.933 41.136 181.869 41.088 181.773 41.088H166.797C166.701 41.088 166.637 41.136 166.605 41.232L164.589 47.616C164.493 47.872 164.301 48 164.013 48H162.333C161.981 48 161.853 47.824 161.949 47.472L172.605 14.784C172.701 14.528 172.893 14.4 173.181 14.4H175.341C175.629 14.4 175.821 14.528 175.917 14.784L186.621 47.472L186.669 47.664C186.669 47.888 186.525 48 186.237 48H184.605ZM167.373 38.736C167.341 38.8 167.341 38.864 167.373 38.928C167.437 38.96 167.501 38.976 167.565 38.976H181.005C181.069 38.976 181.117 38.96 181.149 38.928C181.213 38.864 181.229 38.8 181.197 38.736L174.429 17.856C174.397 17.792 174.349 17.76 174.285 17.76C174.221 17.76 174.173 17.792 174.141 17.856L167.373 38.736ZM205.958 14.4C206.278 14.4 206.438 14.56 206.438 14.88V16.176C206.438 16.496 206.278 16.656 205.958 16.656H199.574C199.446 16.656 199.382 16.72 199.382 16.848V47.52C199.382 47.84 199.222 48 198.902 48H197.318C196.998 48 196.838 47.84 196.838 47.52V16.848C196.838 16.72 196.774 16.656 196.646 16.656H190.646C190.326 16.656 190.166 16.496 190.166 16.176V14.88C190.166 14.56 190.326 14.4 190.646 14.4H205.958ZM226.556 16.176C226.556 16.496 226.396 16.656 226.076 16.656H214.7C214.572 16.656 214.508 16.72 214.508 16.848V29.856C214.508 29.984 214.572 30.048 214.7 30.048H221.996C222.316 30.048 222.476 30.208 222.476 30.528V31.824C222.476 32.144 222.316 32.304 221.996 32.304H214.7C214.572 32.304 214.508 32.368 214.508 32.496V45.552C214.508 45.68 214.572 45.744 214.7 45.744H226.076C226.396 45.744 226.556 45.904 226.556 46.224V47.52C226.556 47.84 226.396 48 226.076 48H212.444C212.124 48 211.964 47.84 211.964 47.52V14.88C211.964 14.56 212.124 14.4 212.444 14.4H226.076C226.396 14.4 226.556 14.56 226.556 14.88V16.176ZM239.36 48.384C237.024 48.384 235.136 47.664 233.696 46.224C232.288 44.752 231.584 42.8 231.584 40.368V21.936C231.584 19.536 232.288 17.616 233.696 16.176C235.136 14.736 237.024 14.016 239.36 14.016C241.728 14.016 243.616 14.736 245.024 16.176C246.464 17.616 247.184 19.536 247.184 21.936V22.848C247.184 23.008 247.136 23.136 247.04 23.232C246.944 23.328 246.832 23.376 246.704 23.376L245.12 23.472C244.8 23.472 244.64 23.312 244.64 22.992V21.792C244.64 20.128 244.16 18.8 243.2 17.808C242.24 16.784 240.96 16.272 239.36 16.272C237.792 16.272 236.528 16.784 235.568 17.808C234.608 18.8 234.128 20.128 234.128 21.792V40.56C234.128 42.224 234.608 43.568 235.568 44.592C236.528 45.616 237.792 46.128 239.36 46.128C240.928 46.128 242.192 45.616 243.152 44.592C244.144 43.568 244.64 42.224 244.64 40.56V39.456C244.64 39.136 244.8 38.976 245.12 38.976L246.704 39.072C247.024 39.072 247.184 39.232 247.184 39.552V40.368C247.184 42.8 246.464 44.752 245.024 46.224C243.616 47.664 241.728 48.384 239.36 48.384ZM266.068 14.88C266.068 14.56 266.228 14.4 266.548 14.4H268.132C268.452 14.4 268.612 14.56 268.612 14.88V47.52C268.612 47.84 268.452 48 268.132 48H266.548C266.228 48 266.068 47.84 266.068 47.52V32.496C266.068 32.368 266.004 32.304 265.876 32.304H256.372C256.244 32.304 256.18 32.368 256.18 32.496V47.52C256.18 47.84 256.02 48 255.7 48H254.116C253.796 48 253.636 47.84 253.636 47.52V14.88C253.636 14.56 253.796 14.4 254.116 14.4H255.7C256.02 14.4 256.18 14.56 256.18 14.88V29.856C256.18 29.984 256.244 30.048 256.372 30.048H265.876C266.004 30.048 266.068 29.984 266.068 29.856V14.88Z" fill="#3F6EB5"/>
</svg>
